<?xml version="1.0" standalone="no"?>
<!DOCTYPE svg PUBLIC "-//W3C//DTD SVG 20010904//EN"
 "http://www.w3.org/TR/2001/REC-SVG-20010904/DTD/svg10.dtd">
<svg version="1.0" xmlns="http://www.w3.org/2000/svg"
 width="32.000000pt" height="32.000000pt" viewBox="0 0 32.000000 32.000000"
 preserveAspectRatio="xMidYMid meet">

<g transform="translate(0.000000,32.000000) scale(0.100000,-0.100000)"
fill="#000000" stroke="none">
<path d="M130 280 c-10 -6 -2 -7 25 -3 49 7 58 13 19 13 -16 0 -36 -5 -44 -10z"/>
<path d="M211 278 c2 -2 16 -14 32 -27 15 -14 27 -22 27 -18 0 10 -42 47 -54
47 -5 0 -7 -1 -5 -2z"/>
<path d="M89 253 c-13 -16 -12 -17 4 -4 9 7 17 15 17 17 0 8 -8 3 -21 -13z"/>
<path d="M160 240 c0 -5 -11 -12 -25 -16 -27 -7 -32 -18 -13 -30 6 -4 8 -3 5
2 -3 5 7 17 22 25 25 15 29 15 49 -2 12 -9 22 -27 22 -39 0 -12 -10 -30 -22
-39 -20 -17 -24 -17 -49 -2 -15 8 -25 20 -22 25 3 5 1 6 -5 2 -17 -10 -15 -26
2 -26 8 0 22 -7 31 -16 15 -15 17 -15 34 0 10 9 23 16 29 16 7 0 12 16 12 40
0 27 -4 40 -14 40 -7 0 -19 7 -26 15 -14 17 -30 20 -30 5z"/>
<path d="M271 204 c0 -11 3 -14 6 -6 3 7 2 16 -1 19 -3 4 -6 -2 -5 -13z"/>
<path d="M165 190 c-4 -6 -3 -16 3 -22 6 -6 12 -6 17 2 4 6 3 16 -3 22 -6 6
-12 6 -17 -2z"/>
<path d="M44 159 c-3 -6 -2 -21 4 -32 5 -12 14 -33 20 -47 10 -22 10 -21 5 10
-3 19 -11 38 -16 41 -5 4 -7 14 -4 23 7 18 2 21 -9 5z"/>
<path d="M255 127 c-30 -62 -30 -67 0 -19 15 23 25 46 23 51 -2 5 -12 -10 -23
-32z"/>
<path d="M100 53 c8 -3 18 -11 22 -17 5 -7 8 -4 8 7 0 11 -7 17 -22 16 -16 0
-18 -2 -8 -6z"/>
<path d="M221 44 c0 -11 3 -14 6 -6 3 7 2 16 -1 19 -3 4 -6 -2 -5 -13z"/>
</g>
</svg>
